<?xml version="1.0" encoding="utf-8"?>
<!-- Generator: Adobe Illustrator 19.1.0, SVG Export Plug-In . SVG Version: 6.00 Build 0)  -->
<svg version="1.1" id="Layer_1" xmlns="http://www.w3.org/2000/svg" xmlns:xlink="http://www.w3.org/1999/xlink" x="0px" y="0px"
	 viewBox="0 0 249.3 36.7" style="enable-background:new 0 0 249.3 36.7;" xml:space="preserve">
<style type="text/css">
	.st0{fill:#FFFFFF;}
	.st1{fill-rule:evenodd;clip-rule:evenodd;fill:#FFFFFF;}
</style>
<g>
	<path class="st0" d="M46.5,34.2l0.7-0.9c0.7,0.6,1.3,0.9,2.2,0.9c0.8,0,1.2-0.4,1.2-0.9v0c0-0.5-0.3-0.8-1.6-1.1
		c-1.5-0.4-2.3-0.8-2.3-2.1v0c0-1.2,1-2,2.4-2c1,0,1.8,0.3,2.5,0.9L51,29.9c-0.6-0.5-1.3-0.7-1.9-0.7c-0.7,0-1.1,0.4-1.1,0.8v0
		c0,0.5,0.3,0.8,1.7,1.1c1.5,0.4,2.2,0.9,2.2,2v0c0,1.3-1,2.1-2.5,2.1C48.3,35.3,47.3,34.9,46.5,34.2z"/>
	<path class="st0" d="M54.7,28.2H56l2.1,3.3l2.1-3.3h1.3v7h-1.2v-5l-2.2,3.3h0l-2.2-3.3v5h-1.2V28.2z"/>
	<path class="st0" d="M67.1,28.2h1.1l3.1,7H70l-0.7-1.7H66l-0.7,1.7H64L67.1,28.2z M68.8,32.4l-1.2-2.8l-1.2,2.8H68.8z"/>
	<path class="st0" d="M73.7,28.2H75v5.9h3.7v1.1h-4.9V28.2z"/>
	<path class="st0" d="M81.1,28.2h1.2v5.9H86v1.1h-4.9V28.2z"/>
	<path class="st0" d="M92.6,28.2h3.1c0.8,0,1.4,0.2,1.8,0.6c0.3,0.3,0.5,0.7,0.5,1.2v0c0,0.8-0.5,1.3-1,1.6c0.8,0.3,1.4,0.7,1.4,1.7
		v0c0,1.2-1,1.9-2.6,1.9h-3.2V28.2z M96.8,30.2c0-0.5-0.4-0.9-1.2-0.9h-1.8v1.9h1.7C96.3,31.2,96.8,30.9,96.8,30.2L96.8,30.2z
		 M95.8,32.2h-1.9v1.9h2c0.8,0,1.3-0.3,1.3-1v0C97.2,32.6,96.8,32.2,95.8,32.2z"/>
	<path class="st0" d="M101.1,32.2v-4h1.2v4c0,1.3,0.7,2,1.8,2c1.1,0,1.8-0.6,1.8-1.9v-4h1.2v4c0,2.1-1.2,3.1-3,3.1
		C102.2,35.3,101.1,34.3,101.1,32.2z"/>
	<path class="st0" d="M109.6,34.2l0.7-0.9c0.7,0.6,1.3,0.9,2.2,0.9c0.8,0,1.2-0.4,1.2-0.9v0c0-0.5-0.3-0.8-1.6-1.1
		c-1.5-0.4-2.3-0.8-2.3-2.1v0c0-1.2,1-2,2.4-2c1,0,1.8,0.3,2.5,0.9l-0.7,0.9c-0.6-0.5-1.3-0.7-1.9-0.7c-0.7,0-1.1,0.4-1.1,0.8v0
		c0,0.5,0.3,0.8,1.7,1.1c1.5,0.4,2.2,0.9,2.2,2v0c0,1.3-1,2.1-2.5,2.1C111.4,35.3,110.4,34.9,109.6,34.2z"/>
	<path class="st0" d="M117.8,28.2h1.2v7h-1.2V28.2z"/>
	<path class="st0" d="M122.2,28.2h1.1l3.7,4.8v-4.8h1.2v7h-1l-3.9-5v5h-1.2V28.2z"/>
	<path class="st0" d="M131.5,28.2h5.2v1.1h-4v1.8h3.5v1.1h-3.5v1.9h4v1.1h-5.2V28.2z"/>
	<path class="st0" d="M139,34.2l0.7-0.9c0.7,0.6,1.3,0.9,2.2,0.9c0.8,0,1.2-0.4,1.2-0.9v0c0-0.5-0.3-0.8-1.6-1.1
		c-1.5-0.4-2.3-0.8-2.3-2.1v0c0-1.2,1-2,2.4-2c1,0,1.8,0.3,2.5,0.9l-0.7,0.9c-0.6-0.5-1.3-0.7-1.9-0.7c-0.7,0-1.1,0.4-1.1,0.8v0
		c0,0.5,0.3,0.8,1.7,1.1c1.5,0.4,2.2,0.9,2.2,2v0c0,1.3-1,2.1-2.5,2.1C140.9,35.3,139.9,34.9,139,34.2z"/>
	<path class="st0" d="M146.7,34.2l0.7-0.9c0.7,0.6,1.3,0.9,2.2,0.9c0.8,0,1.2-0.4,1.2-0.9v0c0-0.5-0.3-0.8-1.6-1.1
		c-1.5-0.4-2.3-0.8-2.3-2.1v0c0-1.2,1-2,2.4-2c1,0,1.8,0.3,2.5,0.9l-0.7,0.9c-0.6-0.5-1.3-0.7-1.9-0.7c-0.7,0-1.1,0.4-1.1,0.8v0
		c0,0.5,0.3,0.8,1.7,1.1c1.5,0.4,2.2,0.9,2.2,2v0c0,1.3-1,2.1-2.5,2.1C148.5,35.3,147.5,34.9,146.7,34.2z"/>
	<path class="st0" d="M161.4,28.2h1.1l3.1,7h-1.3l-0.7-1.7h-3.3l-0.7,1.7h-1.3L161.4,28.2z M163.1,32.4l-1.2-2.8l-1.2,2.8H163.1z"/>
	<path class="st0" d="M168,28.2h2.6c2.2,0,3.7,1.5,3.7,3.5v0c0,2-1.5,3.5-3.7,3.5H168V28.2z M169.3,29.3v4.8h1.4
		c1.5,0,2.4-1,2.4-2.4v0c0-1.4-1-2.4-2.4-2.4H169.3z"/>
	<path class="st0" d="M176.1,28.2h1.4l2.1,5.4l2.1-5.4h1.3l-2.9,7H179L176.1,28.2z"/>
	<path class="st0" d="M185.5,28.2h1.2v7h-1.2V28.2z"/>
	<path class="st0" d="M189.4,34.2l0.7-0.9c0.7,0.6,1.3,0.9,2.2,0.9c0.8,0,1.2-0.4,1.2-0.9v0c0-0.5-0.3-0.8-1.6-1.1
		c-1.5-0.4-2.3-0.8-2.3-2.1v0c0-1.2,1-2,2.4-2c1,0,1.8,0.3,2.5,0.9l-0.7,0.9c-0.6-0.5-1.3-0.7-1.9-0.7c-0.7,0-1.1,0.4-1.1,0.8v0
		c0,0.5,0.3,0.8,1.7,1.1c1.5,0.4,2.2,0.9,2.2,2v0c0,1.3-1,2.1-2.5,2.1C191.3,35.3,190.3,34.9,189.4,34.2z"/>
	<path class="st0" d="M197.2,31.7L197.2,31.7c0-2,1.5-3.6,3.7-3.6c2.1,0,3.6,1.6,3.6,3.6v0c0,2-1.5,3.6-3.7,3.6
		C198.7,35.3,197.2,33.7,197.2,31.7z M203.2,31.7L203.2,31.7c0-1.4-1-2.5-2.4-2.5c-1.4,0-2.4,1.1-2.4,2.5v0c0,1.4,1,2.5,2.4,2.5
		C202.2,34.2,203.2,33.1,203.2,31.7z"/>
	<path class="st0" d="M207.3,28.2h3.1c0.9,0,1.6,0.3,2,0.7c0.4,0.4,0.6,0.9,0.6,1.5v0c0,1.1-0.7,1.8-1.7,2.1l1.9,2.6h-1.5l-1.7-2.4
		h-1.5v2.4h-1.2V28.2z M210.3,31.7c0.9,0,1.4-0.5,1.4-1.2v0c0-0.7-0.5-1.2-1.4-1.2h-1.8v2.3H210.3z"/>
	<path class="st0" d="M215.3,34.2l0.7-0.9c0.7,0.6,1.3,0.9,2.2,0.9c0.8,0,1.2-0.4,1.2-0.9v0c0-0.5-0.3-0.8-1.6-1.1
		c-1.5-0.4-2.3-0.8-2.3-2.1v0c0-1.2,1-2,2.4-2c1,0,1.8,0.3,2.5,0.9l-0.7,0.9c-0.6-0.5-1.3-0.7-1.9-0.7c-0.7,0-1.1,0.4-1.1,0.8v0
		c0,0.5,0.3,0.8,1.7,1.1c1.5,0.4,2.2,0.9,2.2,2v0c0,1.3-1,2.1-2.5,2.1C217.2,35.3,216.1,34.9,215.3,34.2z"/>
</g>
<g>
	<path class="st1" d="M29,17.9L27.4,17c-0.4-0.2-0.8-0.3-1.3-0.1l-1.5,0.5c-0.5,0.2-0.2,0.3,0.2,0.5l2.1,0.7c0.3,0.1,0.3,0.1,0.5,0
		l1.6-0.3C29.2,18.3,29.4,18.1,29,17.9L29,17.9z"/>
	<path class="st1" d="M13.2,1.4c0.4-0.1,0.8-0.2,1.2-0.3l0,0L16,2c0.5,0.3,0.4,0.3,0.1,0.5l-3.2,2.8c-0.3,0.3-0.2,0.3-0.7,0.1
		l-1.6-0.5C10,4.7,9.8,4.8,10.2,4.3L13.2,1.4L13.2,1.4z"/>
	<path class="st1" d="M22.6,17.5L20.8,17c-0.6-0.1-0.4-0.2-0.8,0.1l-1.6,1c-0.4,0.3-0.3,0.3,0.3,0.4l1.7,0.3
		c0.3,0.1,0.6-0.1,0.8-0.2c0.2-0.1,1-0.5,1.5-0.8C23.1,17.5,23.2,17.6,22.6,17.5L22.6,17.5z"/>
	<path class="st1" d="M28.2,31.3c0.3,0.1,0.7,0.1,1,0.2c1.4-1.2,2.6-2.7,3.6-4.3c-0.2,0-0.5,0-0.6,0c-0.9,0-0.9,0.2-1.6,1L28,30.8
		C27.7,31.2,27.7,31.2,28.2,31.3L28.2,31.3z M6.6,18.7l1.6,0.9c0.4,0.2,0.8,0.3,1.3,0.1l1.5-0.5c0.5-0.2,0.2-0.3-0.2-0.5L8.8,18
		c-0.3-0.1-0.3-0.1-0.5,0l-1.6,0.3C6.4,18.3,6.2,18.5,6.6,18.7L6.6,18.7z M7.2,22l1.1,0.9c0.4,0.4,0.8,0.6,1.4,0.3l1.5-0.8
		c0.5-0.3,0.5-0.4,0-0.7L10.1,21c-0.7-0.4-0.7-0.4-1.2-0.2l-1.6,0.6C6.9,21.5,6.7,21.5,7.2,22L7.2,22z M17.4,23.6
		c2.2,0.7,2,0.8,2.7,0.3l1.8-1.3c0.5-0.4,1.1-0.7-0.1-0.9c-0.3,0-0.7-0.1-1-0.1c-0.9-0.1-1.1-0.2-1.6,0.2c-0.6,0.4-1.5,0.9-2,1.2
		C16.8,23.4,16.9,23.5,17.4,23.6L17.4,23.6z M16.2,32.8c0.5,0.3,1.2,0.7,1.7,1c0.5,0.2,0.4,0.2,0.8-0.1c1-0.8,1.9-1.7,2.9-2.6
		c0.2-0.2,0.5-0.5,0-0.7l-1.9-0.7c-0.4-0.2-0.3-0.2-0.7,0.1c-0.7,0.5-2.3,1.9-2.9,2.5C15.9,32.6,15.8,32.6,16.2,32.8L16.2,32.8z"/>
	<path class="st1" d="M32.5,26.4c0.3,0,0.5,0,0.8,0c0.3-0.6,0.6-1.2,0.8-1.8C33.5,25.2,32.8,25.9,32.5,26.4L32.5,26.4z M13.7,22.2
		l1.6,0.5c0.6,0.2,0.5,0.3,1,0c0.6-0.3,1.6-1,2.2-1.4c0.5-0.4,0.4-0.3-0.4-0.5l-1.3-0.3c-0.7-0.1-0.7-0.3-1.3,0.1
		c-0.4,0.2-1.3,0.6-1.8,1C13,22,13.2,22,13.7,22.2L13.7,22.2z M9.9,28.4c0.2,0.2,1.5,1.2,1.8,1.4c0.5,0.3,0.4,0.2,0.8-0.1
		c0.6-0.4,1.7-1.1,2.2-1.6c0.5-0.5,0.5-0.4-0.2-0.7l-1.4-0.8c-0.6-0.3-0.5-0.3-0.9,0l-2.2,1.4C9.6,28.1,9.6,28.1,9.9,28.4L9.9,28.4z
		 M17,27.8l1.8,0.7c0.6,0.3,0.5,0.2,1-0.1c0.7-0.5,1.8-1.4,2.5-2c0.6-0.6,0.7-0.4-0.2-0.7l-1.4-0.3c-0.9-0.2-0.9,0-1.4,0.3L17,27.2
		C16.6,27.5,16.5,27.6,17,27.8L17,27.8z M23.7,30.2l2.8,0.8l3.9-3.9c-0.8-0.2-1.6-0.2-2.4-0.3c-0.9-0.1-0.6-0.1-1.6,0.9L23.7,30.2
		L23.7,30.2z M24.3,25.5c0.7,0.1,1.6,0.2,2.3,0.3c1,0.1,1-0.2,1.7-0.8c0.8-0.7,2.1-1.7,2.7-2.5c-0.7,0-1.3,0-2.1,0
		c-1.2,0-1.1,0-1.9,0.6C26.6,23.4,24.4,25.2,24.3,25.5L24.3,25.5z"/>
	<path class="st1" d="M5.5,29.5l2-1c0.6-0.3,0.4-0.4,0-0.8l-1.3-1.2c-0.2-0.2-0.6-0.2-0.9,0l-1.5,0.8c-0.4,0.2-0.9,0.2-0.2,0.9
		l1,1.2C4.8,29.7,5.2,29.7,5.5,29.5L5.5,29.5z M22.4,35.2c-0.4,0.1-0.8,0.2-1.2,0.3l0,0l-1.6-0.9c-0.5-0.3-0.4-0.3-0.1-0.5l3.2-2.8
		c0.3-0.3,0.2-0.3,0.7-0.1l1.6,0.5c0.6,0.2,0.8,0.2,0.4,0.6L22.4,35.2L22.4,35.2z M24.3,21.9l1.6,0.2c1.1,0.2,0.9,0.1,1.7-0.5
		c0.5-0.5,1-0.9,1.5-1.4c0.3-0.3,0.7-0.6,0-0.6l-1.8-0.1c-0.8,0-1.2,0.2-1.6,0.6c-0.5,0.4-1,0.8-1.5,1.3
		C23.9,21.7,23.7,21.8,24.3,21.9L24.3,21.9z"/>
	<path class="st1" d="M1.2,20.4l1.6,1.7C3,22.4,3,22.5,3.5,22.4c0.4-0.1,1.3-0.5,1.7-0.6c0.5-0.2,0.4-0.2,0-0.5l-1.6-1.4
		c-0.3-0.3-0.2-0.3-0.6-0.2l-1.7,0.4C0.9,20.2,0.9,20.2,1.2,20.4L1.2,20.4z M11.8,34.8c-0.9-0.3-1.8-0.7-2.6-1.2
		c-0.2-0.2-0.2-0.2,0.2-0.4l2.5-1.9c0.4-0.3,0.3-0.3,0.9,0.1l1.4,0.9c0.4,0.3,0.4,0.2,0.1,0.5L11.8,34.8L11.8,34.8z M34.8,22.4
		c-0.1,0.3-0.1,0.6-0.2,0.8l-2,2c-0.6,0.6-0.8,1-1.9,1L29,26.1c-0.9,0-0.7-0.1-0.1-0.6l2.3-2.1c0.8-0.7,0.5-0.7,1.9-0.9
		c0.6-0.1,1.1-0.1,1.6-0.2C34.7,22.4,34.8,22.4,34.8,22.4L34.8,22.4z M13.7,26l1.6,0.8c0.6,0.3,0.4,0.3,0.9-0.1l2.3-1.6
		c0.5-0.4,0.5-0.3-0.2-0.5l-1.2-0.4c-0.7-0.3-1.1-0.2-1.6,0.1l-1.9,1.2C13.1,25.8,13.2,25.8,13.7,26L13.7,26z M6.8,25.9l1.7,1.5
		c0.4,0.3,0.3,0.3,0.7,0.1c0.6-0.3,1.7-1,2.3-1.4c0.4-0.3,0.4-0.2,0-0.5c-0.5-0.3-1.3-0.8-1.8-1.1c-0.4-0.2-0.3-0.2-0.6,0
		c-0.5,0.2-1.6,0.7-2.2,1.1C6.5,25.7,6.5,25.6,6.8,25.9L6.8,25.9z M13,19.1l1.8,0.5c0.6,0.1,0.4,0.2,0.8-0.1l1.6-1
		c0.4-0.3,0.3-0.3-0.3-0.4l-1.7-0.3c-0.3-0.1-0.6,0.1-0.8,0.2c-0.2,0.1-1,0.5-1.5,0.8C12.5,19.1,12.4,19,13,19.1L13,19.1z"/>
	<path class="st1" d="M3.1,10.2c-0.3,0-0.5,0-0.8,0C2,10.8,1.7,11.4,1.5,12C2.1,11.4,2.8,10.7,3.1,10.2L3.1,10.2z"/>
	<path class="st1" d="M18.6,8.8l-1.8-0.7c-0.6-0.3-0.5-0.2-1,0.1c-0.7,0.5-1.8,1.4-2.5,2c-0.6,0.6-0.7,0.4,0.2,0.7l1.4,0.3
		c0.9,0.2,0.9,0,1.4-0.3l2.1-1.6C19,9.1,19.1,9,18.6,8.8L18.6,8.8z"/>
	<path class="st1" d="M11.9,6.4L9.1,5.6L5.1,9.5c0.8,0.2,1.6,0.2,2.4,0.3c0.9,0.1,0.6,0.1,1.6-0.9L11.9,6.4L11.9,6.4z"/>
	<path class="st1" d="M0.8,14.2c0.1-0.3,0.1-0.6,0.2-0.8l2-2c0.6-0.6,0.8-1,1.9-1l1.7,0.1c0.9,0,0.7,0.1,0.1,0.6l-2.3,2.1
		c-0.8,0.7-0.5,0.7-1.9,0.9c-0.6,0.1-1.1,0.1-1.6,0.2C0.9,14.2,0.8,14.2,0.8,14.2L0.8,14.2z"/>
	<path class="st1" d="M25.7,8.2C25.5,8,24.3,7,23.9,6.9c-0.5-0.3-0.4-0.2-0.8,0.1c-0.6,0.4-1.7,1.1-2.2,1.6C20.4,9,20.5,9,21.1,9.3
		l1.4,0.8c0.6,0.3,0.5,0.3,0.9,0l2.2-1.4C26,8.5,26,8.5,25.7,8.2L25.7,8.2z"/>
	<path class="st1" d="M21.9,14.4l-1.6-0.5c-0.6-0.2-0.5-0.3-1,0c-0.6,0.3-1.6,1-2.2,1.4c-0.5,0.4-0.4,0.3,0.4,0.5l1.3,0.3
		c0.7,0.1,0.7,0.3,1.3-0.1c0.4-0.2,1.3-0.6,1.8-1C22.6,14.5,22.4,14.6,21.9,14.4L21.9,14.4z"/>
	<path class="st1" d="M11.3,14.7l-1.6-0.2c-1.1-0.2-0.9-0.1-1.7,0.5c-0.5,0.5-1,0.9-1.5,1.4c-0.3,0.3-0.7,0.6,0,0.6L8.3,17
		c0.8,0,1.2-0.2,1.6-0.6c0.5-0.4,1-0.8,1.5-1.3C11.7,14.9,11.9,14.8,11.3,14.7L11.3,14.7z"/>
	<path class="st1" d="M30.1,7.1l-2,1c-0.6,0.3-0.4,0.4,0,0.8l1.3,1.2c0.2,0.2,0.6,0.2,0.9,0l1.5-0.8c0.4-0.2,0.9-0.2,0.2-0.9l-1-1.2
		C30.8,6.9,30.4,6.9,30.1,7.1L30.1,7.1z"/>
	<path class="st1" d="M28.8,10.7l-1.7-1.5c-0.4-0.3-0.3-0.3-0.7-0.1c-0.6,0.3-1.7,1-2.3,1.4c-0.4,0.3-0.4,0.2,0,0.5
		c0.5,0.3,1.3,0.8,1.8,1.1c0.4,0.2,0.3,0.2,0.6,0c0.5-0.2,1.6-0.7,2.2-1.1C29.1,10.9,29.1,11,28.8,10.7L28.8,10.7z"/>
	<path class="st1" d="M28.4,14.6l-1.1-0.9c-0.4-0.4-0.8-0.6-1.4-0.3l-1.5,0.8c-0.5,0.3-0.5,0.4,0,0.7l1.1,0.6
		c0.7,0.4,0.7,0.4,1.2,0.2l1.6-0.6C28.6,15.1,28.9,15.1,28.4,14.6L28.4,14.6z"/>
	<path class="st1" d="M21.9,10.6l-1.6-0.8c-0.6-0.3-0.4-0.3-0.9,0.1l-2.3,1.6c-0.5,0.4-0.5,0.3,0.2,0.5l1.2,0.4
		c0.7,0.3,1.1,0.2,1.6-0.1l1.9-1.2C22.5,10.8,22.4,10.8,21.9,10.6L21.9,10.6z"/>
	<path class="st1" d="M23.8,1.8c0.9,0.3,1.8,0.7,2.6,1.2c0.2,0.2,0.2,0.2-0.2,0.4l-2.5,1.9c-0.4,0.3-0.3,0.3-0.9-0.1l-1.4-0.9
		C21,4.1,21,4.2,21.4,3.9L23.8,1.8L23.8,1.8z"/>
	<path class="st1" d="M34.4,16.2l-1.6-1.7c-0.3-0.3-0.3-0.4-0.7-0.2c-0.4,0.1-1.3,0.5-1.7,0.6C30,15,30,15,30.4,15.3l1.6,1.4
		c0.3,0.3,0.2,0.3,0.6,0.2l1.7-0.4C34.7,16.4,34.7,16.4,34.4,16.2L34.4,16.2z"/>
	<path class="st1" d="M18.2,13c-2.2-0.7-2-0.8-2.7-0.3L13.6,14c-0.5,0.4-1.1,0.7,0.1,0.9c0.3,0,0.7,0.1,1,0.1
		c0.9,0.1,1.1,0.2,1.6-0.2c0.6-0.4,1.5-0.9,2-1.2C18.8,13.2,18.7,13.1,18.2,13L18.2,13z"/>
	<path class="st1" d="M19.4,3.8c-0.5-0.3-1.2-0.7-1.7-1c-0.5-0.2-0.4-0.2-0.8,0.1c-1,0.8-1.9,1.7-2.9,2.6c-0.2,0.2-0.5,0.5,0,0.7
		l1.9,0.7c0.4,0.2,0.3,0.2,0.7-0.1c0.7-0.5,2.3-1.9,2.9-2.5C19.7,4,19.8,4,19.4,3.8L19.4,3.8z"/>
	<path class="st1" d="M7.4,5.3C7,5.2,6.7,5.1,6.3,5.1C4.9,6.3,3.7,7.7,2.7,9.3c0.2,0,0.5,0,0.6,0c0.9,0,0.9-0.2,1.6-1l2.5-2.5
		C7.9,5.4,7.9,5.4,7.4,5.3L7.4,5.3z"/>
	<path class="st1" d="M11.3,11.1C10.6,11,9.7,10.9,9,10.8c-1-0.1-1,0.2-1.7,0.8c-0.8,0.7-2.1,1.7-2.7,2.5c0.7,0,1.3,0,2.1,0
		c1.2,0,1.1,0,1.9-0.6C9,13.2,11.2,11.4,11.3,11.1L11.3,11.1z"/>
</g>
<g>
	<g>
		<path class="st0" d="M48.1,19.2c1.7,0,2.5-0.6,2.5-2.2V4.5H49c-0.5,0-0.8,0.2-1.1,0.5c-0.6,0.6-1.8,3-2.6,4.6h-0.3l0.2-5.5h13.7
			L59,9.6h-0.3c-1.4-2.7-2.1-4-2.7-4.6c-0.4-0.4-0.6-0.5-1.2-0.5h-1.5V17c0,1.5,0.8,2.2,2.4,2.2h0.7v0.4h-9.1v-0.4H48.1z"/>
		<path class="st0" d="M61.4,6.4c0-1.1-0.7-1.7-1.8-1.7V4.2c1.5,0,2.4-0.1,3.9-0.2v7.2c0.9-1.6,1.9-2.7,3.7-2.7c1,0,2.1,0.4,2.8,1.1
			c0.9,0.9,1.1,1.8,1.1,3.1v5.6c0,0.8,0.3,1,0.9,1h0.9v0.5h-5.7v-0.5h1c0.6,0,0.9-0.2,0.9-1v-5.9c0-1.9-0.5-3.3-2.3-3.3
			c-1.1,0-3.2,1.1-3.2,5.7v3.5c0,0.8,0.3,1,0.9,1h0.9v0.5h-5.7v-0.5h1c0.6,0,0.9-0.2,0.9-1V6.4z"/>
		<path class="st0" d="M83.6,17.3c-1.3,1.8-2.8,2.6-4.8,2.6c-3.2,0-5.2-2.9-5.2-5.7c0-3.2,2.3-5.8,5.5-5.8c2.4,0,4.5,2,4.6,4.7H76
			v1.5c0,3.2,1.5,4.7,3.5,4.7c1.5,0,2.8-0.8,3.7-2.2L83.6,17.3z M81.1,12.7c0.3-0.6,0.4-1.1,0.4-1.6c0-1.6-1.3-2.3-2.3-2.3
			c-1.6,0-3,1.2-3.1,3.9H81.1z"/>
		<path class="st0" d="M91.7,14.5c1.2,3.2,3.6,5,5.8,5c2,0,3-1.4,3-3c0-0.6-0.2-1.5-0.9-2.2c-1.8-1.8-4.8-1.4-6.8-3.4
			c-0.8-0.8-1.3-1.9-1.3-3.4c0-2.4,1.7-4.3,4.1-4.3c1.8,0,3.1,1,3.8,1c0.5,0,1.1-0.3,1.4-0.9h0.2l0.2,4.6h-0.2
			c-0.3-0.5-0.8-1.5-1.8-2.5c-1.1-1.1-2.4-1.8-3.6-1.8c-1.1,0-2.7,0.5-2.7,2.6c0,0.7,0.3,1.4,0.8,1.9c1.8,1.8,5.2,1.4,7.4,3.6
			c0.7,0.7,1.2,1.9,1.2,3.2c0,3.1-1.9,4.9-4.8,4.9c-1.9,0-2.9-0.9-4.1-0.9c-1,0-1.5,0.6-1.9,0.9h-0.2v-5.4H91.7z"/>
		<path class="st0" d="M103.4,8.5h2.3V4.4l2.1-0.8v5h3.8v0.8h-3.8v7c-0.1,1.7,0.6,2.9,1.8,2.9c1.6,0,2.4-1.7,2.4-3.3h0.5v0.4
			c0,2.1-1.4,3.6-3.5,3.6c-1.2,0-3.3-0.7-3.2-3.5V9.2h-2.3V8.5z"/>
		<path class="st0" d="M123.8,17.3c-1.3,1.8-2.8,2.6-4.8,2.6c-3.2,0-5.2-2.9-5.2-5.7c0-3.2,2.3-5.8,5.5-5.8c2.4,0,4.5,2,4.6,4.7
			h-7.7v1.5c0,3.2,1.5,4.7,3.5,4.7c1.5,0,2.8-0.8,3.7-2.2L123.8,17.3z M121.3,12.7c0.3-0.6,0.4-1.1,0.4-1.6c0-1.6-1.3-2.3-2.3-2.3
			c-1.6,0-3,1.2-3.1,3.9H121.3z"/>
		<path class="st0" d="M126.4,10.3c-0.3-0.9-0.7-1.4-1.7-1.4h-0.4V8.5h5.7v0.4h-0.5c-0.6,0-1,0.2-1,0.8c0,0.2,0.1,0.5,0.2,0.8
			l2.4,6.3l2.2-5.8c-0.6-1.9-0.7-2.1-1.8-2.1V8.5h5.2v0.4c-0.9,0-1.5,0.2-1.5,0.9c0,0.2,0.1,0.6,0.2,0.9l2.3,6l1.7-4.8
			c0.2-0.5,0.3-1,0.3-1.5c0-1.6-0.9-1.6-1.4-1.6V8.5h4.2v0.4h-0.3c-0.7,0-1.7,1.1-2.2,2.5l-3.1,8.5h-0.3l-3.1-8.3l-3.2,8.3H130
			L126.4,10.3z"/>
		<path class="st0" d="M150.6,11.5c0-1.8-0.5-2.7-2.5-2.7c-1.5,0-2.3,0.5-2.3,1.1c0,0.7,0.8,0.8,0.8,1.6c0,0.7-0.5,1.3-1.3,1.3
			c-0.7,0-1.4-0.6-1.4-1.5c0-1.2,1.2-3,4.7-3c1.6,0,4,0.6,4,3.4v5.5c0,0.9,0.1,1.7,0.9,1.7c0.4,0,1.1-0.6,1.1-2.1v-0.7h0.4v0.7
			c0,2.7-1.6,3-2.4,3c-1.1,0-2-0.7-2-2.1c-0.9,1.2-2.1,2.1-4.3,2.1c-1.9,0-3.1-1.2-3.1-2.5c0-0.7,0.4-1.3,0.8-1.8
			c1.5-1.5,3.8-1.4,6.5-2.5V11.5z M150.6,13.6c-1.8,0.7-3.2,0.7-4.2,1.6c-0.4,0.4-0.7,1.2-0.7,2c0,1,0.5,2,1.7,2s3.2-1.2,3.2-3V13.6
			z"/>
		<path class="st0" d="M160,11c0.6-1.5,1.7-2.7,3.1-2.7c1.1,0,2.1,0.9,2.1,2c0,0.8-0.5,1.6-1.3,1.6c-0.8,0-1.1-0.8-1.1-1.2
			c0-0.2,0.1-0.6,0.1-0.9c0-0.3-0.1-0.6-0.6-0.6c-1,0-2.2,2.1-2.2,5.1v4c0,0.8,0.3,1,0.9,1h1.5v0.4h-6.5v-0.4h1.1
			c0.6,0,0.9-0.2,0.9-1v-6.8c0-2.4-0.9-2.4-2.2-2.4V8.5l4.3-0.2V11z"/>
		<path class="st0" d="M166.2,8.5h2.3V4.4l2.1-0.8v5h3.8v0.8h-3.8v7c-0.1,1.7,0.6,2.9,1.8,2.9c1.6,0,2.4-1.7,2.4-3.3h0.5v0.4
			c0,2.1-1.4,3.6-3.5,3.6c-1.2,0-3.3-0.7-3.2-3.5V9.2h-2.3V8.5z"/>
		<path class="st0" d="M196.4,19.5L196.4,19.5c-0.6-0.4-0.9-0.5-1.5-0.5c-1.5,0-2.8,1-5,1c-4.5,0-7.2-3-7.2-7.7c0-5.5,3.5-9,7.4-9
			c1.7,0,3.1,0.7,4.4,1.8c0.4-0.4,0.9-1.2,1.1-1.8h0.3l0.4,6.3h-0.3c-0.9-3.6-3.2-6-5.8-6c-4.3,0-4.4,5.3-4.4,8c0,2.1,0,7.9,4.7,7.9
			c1.4,0,3.1-0.8,3.1-2.8v-0.6c0-1.6-0.8-2.3-2.6-2.3h-0.3v-0.4h8.1v0.4c-1.7,0-2.3,0.7-2.3,2.3V19.5z"/>
		<path class="st0" d="M203,11c0.6-1.5,1.7-2.7,3.1-2.7c1.1,0,2.1,0.9,2.1,2c0,0.8-0.5,1.6-1.3,1.6c-0.8,0-1.1-0.8-1.1-1.2
			c0-0.2,0.1-0.6,0.1-0.9c0-0.3-0.1-0.6-0.6-0.6c-1,0-2.2,2.1-2.2,5.1v4c0,0.8,0.3,1,0.9,1h1.5v0.4h-6.5v-0.4h1.1
			c0.6,0,0.9-0.2,0.9-1v-6.8c0-2.4-0.9-2.4-2.2-2.4V8.5l4.3-0.2V11z"/>
		<path class="st0" d="M220.6,14.1c0,2.8-2.2,5.7-5.8,5.7c-3.2,0-5.8-2.5-5.8-5.7c0-3.4,2.7-5.8,5.8-5.8
			C217.9,8.3,220.6,10.9,220.6,14.1z M211.4,13.9c0,4.2,1.1,5.5,3.3,5.5c3,0,3.4-2.6,3.4-5.4c0-4.7-1.9-5.3-3.4-5.3
			C212.1,8.8,211.4,10.9,211.4,13.9z"/>
		<path class="st0" d="M230.8,17c-1.1,2.1-2.3,2.9-4.3,2.9c-1.2,0-3.3-0.5-3.3-3.3v-6c0-1.5-0.8-1.5-2-1.5V8.5l4.1-0.2v8
			c0,1.5,0.3,3,1.9,3c1.6,0,3.6-1.7,3.6-5.5v-3.4c0-1.5-0.8-1.5-2.1-1.5V8.5l4.2-0.2v9.9c0,0.8,0.3,1,0.9,1h1v0.4h-4V17z"/>
		<path class="st0" d="M237.1,12.1c0-2.7-0.6-3.1-1.5-3.1H235V8.5l4.1-0.2v2.5c1-1.8,2.4-2.6,4.1-2.6c2.3,0,5,2.2,5,5.7
			c0,4.1-3.3,5.9-5.3,5.9c-1.7,0-2.7-0.8-3.7-2.1v6.8c0,0.8,0.3,1,0.9,1h1.4V26h-6.5v-0.4h1.1c0.6,0,0.9-0.2,0.9-1V12.1z
			 M245.7,14.3c0-1.3-0.1-5.5-3-5.5c-0.7,0-3.6,0.4-3.6,5.6c0,3.8,1.9,5.1,3.5,5.1C243.6,19.5,245.7,18.9,245.7,14.3z"/>
	</g>
</g>
</svg>
